/* XPM */
static char * east_xpm[] = {
"32 32 89 1",
" 	c #FFFFFF",
".	c #F9F9F9",
"+	c #DEDEDE",
"@	c #D2D2D2",
"#	c #D1D1D1",
"$	c #F2F2F2",
"%	c #FDFDFD",
"&	c #979797",
"*	c #3F3F3F",
"=	c #393939",
"-	c #444444",
";	c #DADADA",
">	c #FBFBFB",
",	c #525252",
"'	c #303030",
")	c #3D3D3D",
"!	c #D9D9D9",
"~	c #9D9D9D",
"{	c #373737",
"]	c #323232",
"^	c #343434",
"/	c #FAFAFA",
"(	c #DCDCDC",
"_	c #CBCBCB",
":	c #484848",
"<	c #747474",
"[	c #CDCDCD",
"}	c #9E9E9E",
"|	c #545454",
"1	c #8E8E8E",
"2	c #FCFCFC",
"3	c #C4C4C4",
"4	c #333333",
"5	c #FEFEFE",
"6	c #F5F5F5",
"7	c #C7C7C7",
"8	c #DBDBDB",
"9	c #C0C0C0",
"0	c #4E4E4E",
"a	c #6C6C6C",
"b	c #E7E7E7",
"c	c #DDDDDD",
"d	c #414141",
"e	c #EDEDED",
"f	c #636363",
"g	c #313131",
"h	c #B4B4B4",
"i	c #BEBEBE",
"j	c #969696",
"k	c #CCCCCC",
"l	c #787878",
"m	c #D3D3D3",
"n	c #D5D5D5",
"o	c #CFCFCF",
"p	c #424242",
"q	c #A3A3A3",
"r	c #3B3B3B",
"s	c #3A3A3A",
"t	c #A2A2A2",
"u	c #626262",
"v	c #B2B2B2",
"w	c #BABABA",
"x	c #A4A4A4",
"y	c #E0E0E0",
"z	c #4C4C4C",
"A	c #656565",
"B	c #E5E5E5",
"C	c #CACACA",
"D	c #6F6F6F",
"E	c #F3F3F3",
"F	c #F7F7F7",
"G	c #AEAEAE",
"H	c #464646",
"I	c #F0F0F0",
"J	c #AAAAAA",
"K	c #454545",
"L	c #ECECEC",
"M	c #7D7D7D",
"N	c #DFDFDF",
"O	c #959595",
"P	c #AFAFAF",
"Q	c #474747",
"R	c #363636",
"S	c #555555",
"T	c #8F8F8F",
"U	c #383838",
"V	c #CECECE",
"W	c #BFBFBF",
"X	c #F6F6F6",
"                                ",
"                                ",
"                                ",
"                                ",
"                                ",
"                                ",
"                                ",
"     .+@###############@$       ",
"    %&*================-;       ",
"    >,''''''''''''''''')!       ",
"    %~*{''']{{{{{{{{^'')!       ",
"     /(_:''<_[[[[[[[}]')!       ",
"       >|''12       34')!       ",
"       >|''12  56.  7^')8       ",
"       >|''12 590ab cd'0e       ",
"       >|''12 >f'gh52ijk5       ",
"       >|''lmnop''q% 5%         ",
"       >|''4rrs'''t%            ",
"       >|'''''''''t%            ",
"       >|'']{{{'''t%            ",
"       >|''<_[7d''q%  55        ",
"       >|''12 >u''v5 .wxy       ",
"       >|''12 5izAB  C='D/      ",
"       >|''12  %EF  5G''HI      ",
"       >|''12       5J''Ke      ",
"     %L(z''McNNNNNNN+O''Ke      ",
"    %PQ*g''^*********R''Ke      ",
"    /S''''''''''''''''''Ke      ",
"    2TU'''''''''''''''''Ke      ",
"     6VWiiiiiiiiiiiiiiii9X      ",
"                                ",
"                                "};
