/* XPM */
static char * north_xpm[] = {
"32 32 80 1",
" 	c #FFFFFF",
".	c #F6F6F6",
"+	c #DADADA",
"@	c #D3D3D3",
"#	c #E6E6E6",
"$	c #ECECEC",
"%	c #D6D6D6",
"&	c #DDDDDD",
"*	c #FBFBFB",
"=	c #F4F4F4",
"-	c #555555",
";	c #303030",
">	c #535353",
",	c #F3F3F3",
"'	c #313131",
")	c #747474",
"!	c #FCFCFC",
"~	c #DEDEDE",
"{	c #989898",
"]	c #ACACAC",
"^	c rgba(234, 234, 234, 0.06)",
"/	c #5C5C5C",
"(	c #D2D2D2",
"_	c #D7D7D7",
":	c #333333",
"<	c #686868",
"[	c #F7F7F7",
"}	c #B5B5B5",
"|	c #585858",
"1	c #CECECE",
"2	c #636363",
"3	c #4F4F4F",
"4	c #E0E0E0",
"5	c #9D9D9D",
"6	c #787878",
"7	c #5E5E5E",
"8	c #D5D5D5",
"9	c #414141",
"0	c #5D5D5D",
"a	c #B2B2B2",
"b	c #5B5B5B",
"c	c #A1A1A1",
"d	c #C0C0C0",
"e	c #D4D4D4",
"f	c #D9D9D9",
"g	c #9B9B9B",
"h	c #616161",
"i	c #565656",
"j	c #A6A6A6",
"k	c #D1D1D1",
"l	c #DCDCDC",
"m	c #969696",
"n	c #666666",
"o	c #F8F8F8",
"p	c #F2F2F2",
"q	c #515151",
"r	c #ABABAB",
"s	c #CDCDCD",
"t	c #323232",
"u	c #474747",
"v	c #909090",
"w	c #F0F0F0",
"x	c #4C4C4C",
"y	c #C9C9C9",
"z	c #AAAAAA",
"A	c #E2E2E2",
"B	c #E9E9E9",
"C	c #FDFDFD",
"D	c #4B4B4B",
"E	c #707070",
"F	c #F9F9F9",
"G	c #FEFEFE",
"H	c #8B8B8B",
"I	c #BBBBBB",
"J	c #EEEEEE",
"K	c #C5C5C5",
"L	c #E3E3E3",
"M	c #C3C3C3",
"N	c #BEBEBE",
"O	c #C7C7C7",
"                                ",
"                                ",
"                                ",
"                                ",
"                                ",
"                                ",
"                                ",
"     .+@@@@#      $%@@@@@&*     ",
"    =-;;;;;>,    @';;;;;;;)!    ",
"    ~;;;;;;;{    ];;;;;;;;;^    ",
"    ./;;;;;;;(   _:;;;;;;;<*    ",
"     [%};;;;;|=   $(12;;3%[     ",
"       4;;;;;;5      6;;7       ",
"       4;;;;;;;8     6;;7       ",
"       4;;;9;;;0.    6;;7       ",
"       4;;;ab;;;c    6;;7       ",
"       4;;;de;;;;f   6;;7       ",
"       4;;;d g;;;h[  6;;7       ",
"       4;;;d =i;;;j  6;;7       ",
"       4;;;d  k;;;;l 6;;7       ",
"       4;;;d   m;;;no6;;7       ",
"       4;;;d   pq;;;r6;;7       ",
"       4;;;d    s;;;tu;;7       ",
"       4;;;d     v;;;;;;7       ",
"       4;;;d     wx;;;;;7       ",
"      oy;;;zABC   y;;;;;7       ",
"     #D;;;;;;;EF  GH;;;;7       ",
"     I;;;;;;;;;A   Ju;;;7       ",
"     f';;;;;;;3=    K;;;7       ",
"      LMNNNNNOw     GMNNK       ",
"                                ",
"                                "};
