/* XPM */
static char * south_xpm[] = {
"32 32 137 2",
"  	c #303030",
". 	c #2F2F2F",
"+ 	c #2E2E2E",
"@ 	c #333333",
"# 	c #444444",
"$ 	c #535353",
"% 	c #585858",
"& 	c #575757",
"* 	c #4D4D4D",
"= 	c #3B3B3B",
"- 	c #4E4E4E",
"; 	c #545454",
"> 	c #3A3A3A",
", 	c #3C3C3C",
"' 	c #6D6D6D",
") 	c #ACACAC",
"! 	c #D1D1D1",
"~ 	c #E1E1E1",
"{ 	c #E8E8E8",
"] 	c #E6E6E6",
"^ 	c #DBDBDB",
"/ 	c #C1C1C1",
"( 	c #8C8C8C",
"_ 	c #787878",
": 	c #D6D6D6",
"< 	c #E2E2E2",
"[ 	c #9C9C9C",
"} 	c #373737",
"| 	c #B0B0B0",
"1 	c #EDEDED",
"2 	c #FCFCFC",
"3 	c #FFFFFF",
"4 	c #FEFEFE",
"5 	c #F7F7F7",
"6 	c #ECECEC",
"7 	c #FDFDFD",
"8 	c #DEDEDE",
"9 	c #505050",
"0 	c #CBCBCB",
"a 	c #FAFAFA",
"b 	c #E9E9E9",
"c 	c #5A5A5A",
"d 	c #3E3E3E",
"e 	c #B8B8B8",
"f 	c #FBFBFB",
"g 	c #F2F2F2",
"h 	c #EAEAEA",
"i 	c #F6F6F6",
"j 	c #5B5B5B",
"k 	c #EEEEEE",
"l 	c #E4E4E4",
"m 	c #A0A0A0",
"n 	c #696969",
"o 	c #5E5E5E",
"p 	c #7D7D7D",
"q 	c #BCBCBC",
"r 	c #F3F3F3",
"s 	c #737373",
"t 	c #404040",
"u 	c #F8F8F8",
"v 	c #313131",
"w 	c #AFAFAF",
"x 	c #C4C4C4",
"y 	c #383838",
"z 	c #E3E3E3",
"A 	c #E5E5E5",
"B 	c #565656",
"C 	c #A7A7A7",
"D 	c #D5D5D5",
"E 	c #4F4F4F",
"F 	c #2D2D2D",
"G 	c #BABABA",
"H 	c #F9F9F9",
"I 	c #C2C2C2",
"J 	c #414141",
"K 	c #848484",
"L 	c #BFBFBF",
"M 	c #6F6F6F",
"N 	c #464646",
"O 	c #555555",
"P 	c #9D9D9D",
"Q 	c #9F9F9F",
"R 	c #D8D8D8",
"S 	c #EFEFEF",
"T 	c #D3D3D3",
"U 	c #B5B5B5",
"V 	c #999999",
"W 	c #828282",
"X 	c #F5F5F5",
"Y 	c #CACACA",
"Z 	c #989898",
"` 	c #595959",
" .	c #323232",
"..	c #898989",
"+.	c #E0E0E0",
"@.	c #616161",
"#.	c #F1F1F1",
"$.	c #F0F0F0",
"%.	c #939393",
"&.	c #353535",
"*.	c #343434",
"=.	c #4B4B4B",
"-.	c #6A6A6A",
";.	c #929292",
">.	c #B3B3B3",
",.	c #CFCFCF",
"'.	c #E7E7E7",
").	c #676767",
"!.	c #454545",
"~.	c #5C5C5C",
"{.	c #808080",
"].	c #C7C7C7",
"^.	c #A6A6A6",
"/.	c #494949",
"(.	c #C0C0C0",
"_.	c #747474",
":.	c #3D3D3D",
"<.	c #9E9E9E",
"[.	c #D2D2D2",
"}.	c #888888",
"|.	c #393939",
"1.	c #CECECE",
"2.	c #C9C9C9",
"3.	c #8A8A8A",
"4.	c #757575",
"5.	c #5D5D5D",
"6.	c #D4D4D4",
"7.	c #A4A4A4",
"8.	c #F4F4F4",
"9.	c #DDDDDD",
"0.	c #636363",
"a.	c #818181",
"b.	c #D9D9D9",
"c.	c #8D8D8D",
"d.	c #BBBBBB",
"e.	c #C8C8C8",
"f.	c #646464",
"                                                                ",
"                                                                ",
"                                                                ",
"                                                                ",
"                                                                ",
"                            . . . .       . .                   ",
"                      + @ # $ % & * = .   - ; > .               ",
"                  + , ' ) ! ~ { ] ^ / ( _ : < [ }               ",
"                + ; | 1 2 3 3 3 3 3 4 5 6 7 3 8 9 .             ",
"              + & 0 a 3 3 3 3 3 3 3 3 3 3 3 3 b c .             ",
"              d e f 3 3 3 a g h 1 i 7 3 3 3 3 h j .             ",
"            + ' k 3 3 4 l m n c o p q r 3 3 3 h j .             ",
"              [ a 3 3 { s @ + . + + t m u 3 3 h j .             ",
"            v w 7 3 3 x y           + % z 3 3 A B .             ",
"            v C 2 3 3 D E F .         , G H a I J               ",
"            . K i 3 3 H L M N @   . . + O P Q c .               ",
"            . 9 R 4 3 3 2 S T U V _ % t . . v .                 ",
"              v W 6 3 3 3 3 3 7 a X ] Y Z `  ..                 ",
"              . } ..z f 3 3 3 3 3 3 3 4 H +.( = .               ",
"                . @ @.C R #.H 7 3 3 3 3 3 3 $.%.&.              ",
"              . . . + *.=.-.;.>.,.l i 7 3 3 3 '.).+             ",
"            . !.~.9  .  . +   @ J B {.].5 3 3 f ^. .            ",
"          . /.(.6 ^ _..           . + =.I 7 3 3 Y :.            ",
"          . _.r 3 7 (., .             + <.a 3 3 [.!..           ",
"            }.u 3 3 6 {.|.+ . . . + . B 1.4 3 3 2.:.            ",
"          . 3.u 3 3 4 6 >.4.& E 9 5.( 6.a 3 3 f 7.v             ",
"          . ..u 3 3 3 3 2 8.A 9.8 h u 4 3 3 3 l 0.+             ",
"          . a.5 3 3 3 3 3 3 3 3 3 3 3 3 3 4 6 3.@               ",
"          . ~.z 7 8.+.X 7 3 3 3 3 3 3 4 u b.a.y .               ",
"            *._ w c.& K d.^ 6 r r k ~ e.%.$   .                 ",
"              .  .  + . y * ~.0.f.o $ d   .                     ",
"                          . . + + . .                           "};
