/* XPM */
static char *_61d4c90ab2749d3f645d22cff123f66EOUTbNqiq7A73pfJ[] = {
/* columns rows colors chars-per-pixel */
"32 32 11 1 ",
"  c #5880CC",
". c #62ABD4",
"X c #BBC44E",
"o c #1F3736",
"O c #25131A",
"+ c #56587B",
"@ c #523B40",
"# c #8A961F",
"$ c #5C6B53",
"% c #3D253B",
"& c None",
/* pixels */
"@@@%%%%%%%%%%%%%%%%%%%%%%%%%%%@@",
"@@@%%%%%%%%%%%%%%%%%%%%%%%%%%%@@",
"@@%%%%%%%%%%%%%%%%@@@%%%%%%%%%%@",
"%%%%%%%%%%%%%%%%%@@@@@%%%%%%%%%%",
"%%%%%%%%%%%%%%%%%@@@@@%%%%%%%%%%",
"%%%%%%@@@%%%%%%%%@@@@@%%%%%%%%%%",
"%%%%%@@@@@%%%%%%%@@@@@%%%%%%%%%%",
"%%%%@@@@@@%%%%%%%%@@@%%%%%%%%%%%",
"%%%%@@@@@@%%%%%%%%%%%%%%%%%%%%%%",
"%%%%@@@@@%%%%%%%%%%%%%%%%%%%%%%%",
"%%%%%@@@%%%%%%%%%%%%%%%%%%%@@%%%",
"%%%%%%%%%%%%%%%%%%%%%%%%%%@@@%%%",
"%%%%%%%%%%%%%%%%%%%%%%%%%%@@%%%%",
"%%%%%%%%%%%%%%%%%%%%%%%%%%%%%%%%",
"%%%%%%%%%%%%%%%%%%%%%%%%%%%%%%%%",
"%%%%%%%%%%%%%%%%%@@%%%%%%%%%%%%%",
"%%%%%%%%%%%%%%%%%%%%%%%%%%%%%%%%",
"%%%%%%@@@@@%%%%%@@%%%%%%%%%%%%%%",
"%%%%%@@@@@@@%%%%@@%%$$$$$%%%%%%%",
"@%%%%@@@@@@@%%%%%%%$$$$$$$%%%%$$",
"@%%%%@@@@@@@%%%%%%%$$$$$$$$%%$$$",
"%%%%%@@@@@@%%%%%%%%$$$$$$$$%%$$$",
"%%%%%%@@@@%%%%%%%%%$$$$$$$$%%$$$",
"%%%%%%%%%%%%%%%%%%%$$$$$$$$%%$$$",
"%%%%%%%%%%%%%%%%%%%%$$$$$$$%%%$$",
"%%%%%%%%%%%%%%%%%%%%%$$$$$%%%%%%",
"%%%%%%%%%%%%%%%%%$$%%%%%%%%%####",
"%%%%%%%%%%%%%@@%%$$$%%%%%%%#####",
"@%%%%%%%%%%%%@@%%%$$%%%%%%######",
"@@%%%%%%%%%%%%%%%%%%$$$$%%######",
"@@@%%%%%%%%%%%%%%%%$$$$$$%######",
"@@@%%%%%%%%%%%%%%%%$$$$$$%######"
};
