/* XPM */
static char * Hand1_xpm[] = {
"64 64 11 1",
" 	c None",
".	c #FF4900",
"+	c #FF9200",
"@	c #FFDB00",
"#	c #6D0000",
"$	c #490000",
"%	c #6D2400",
"&	c #FFB655",
"*	c #FF9255",
"=	c #0049FF",
"-	c #0024AA",
"                                                                ",
"                                                                ",
"                                                                ",
"                . ......                                        ",
"                    ......                                      ",
"                     ..+...                                     ",
"                     ...+..                                     ",
"                      ..++..  .                                 ",
"                      ...+... ...                               ",
"                      ...++..  ..                               ",
"                  .   ...++..  ...                              ",
"                 .  ....++++..  ...                             ",
"                .  ....++@++.....+.                             ",
"               .. ....+++@@++....+..                            ",
"              ......+++@@@@@++..+++.                            ",
"              .+...+++@@@@@@@++++@+.                            ",
"              .++..++@@@@@@@@+++@@+.                            ",
"              ..+++++@@@@@@@@@@@@++.                            ",
"              ...++@@@@@@@@@@@@@++..                            ",
"              ....+++@@@@@@@@@++++..                            ",
"               ....++@@@@@@@+++++..                             ",
"                ...++@@@@@+++++...                              ",
"                 ...+++@@+++.....                               ",
"                 .....++++.....#                                ",
"                  $..........%$                                 ",
"                  $%%%$%%#$#%#$                                 ",
"                 %$%%#$%#$$#%#$                                 ",
"                 $%%%%%%%$#%%$$                                 ",
"                 $%%$%#%%$#%%$                                  ",
"                 $#%$##%%$%%%$                                  ",
"                 $#%$$%#%$%%#$                                  ",
"                 $#%%$%#%$%%#%$                                 ",
"                 $$#%$$#%$%#%%$                                 ",
"                  $%%%$##%%$%%$                                 ",
"                  $%#%%%#%%$%$$                                 ",
"                  $%##$%#%%$%$                                  ",
"                  $%#%$%#%#$%$                                  ",
"                  $%##%%#%%$$                                   ",
"                  $$##%%%%#$%                                   ",
"                   $#%#%%%$%%$                                  ",
"                   $#%#%%%$%%$                                  ",
"                   $$%%%#%$%%#                                  ",
"                  $%$$%%%%$%%$                                  ",
"                  $%%$%%%$$%$                                   ",
"                  $%%$#%%$#%$                                   ",
"                &&&$#$#%%$#%$                                   ",
"                &&&&#%$%%#%%&&&                                 ",
"                *&&&&&&%%%%&&&&                                 ",
"               &&**&&&&#%#&&&&*                                 ",
"               &&&&****##%&&&*&                                 ",
"               *&&&&&&&&%%***$&&&                               ",
"                **&&&&&&%%$#%$&&&&&                             ",
"                &&******%%$%$&&&&&&&                            ",
"                *&&&&&&%#$#%$&&&&&&===                          ",
"                 **&&&&%#$%%$&&&&&=====                         ",
"                   ****%$%%%$$&&&&=======                       ",
"                   $$$%%$#%%$&&&&==========                     ",
"                   $%%$%$#%$$&&&=============                   ",
"                   $%%#%$$%$*&&===============                  ",
"                    $%#%%#%$ *-=================                ",
"                     $%$#$$   --==================              ",
"                               -====================            ",
"                               --=====================          ",
"                                --======================        "};
