/* XPM */
static char * west_xpm[] = {
"32 32 133 2",
"  	c #303030",
". 	c #333333",
"+ 	c #707070",
"@ 	c #9D9D9D",
"# 	c #A6A6A6",
"$ 	c #9E9E9E",
"% 	c #747474",
"& 	c #363636",
"* 	c #565656",
"= 	c #919191",
"- 	c #A5A5A5",
"; 	c #A4A4A4",
"> 	c #8A8A8A",
", 	c #4A4A4A",
"' 	c #7A7A7A",
") 	c #F0F0F0",
"! 	c #FCFCFC",
"~ 	c #FDFDFD",
"{ 	c #F3F3F3",
"] 	c #8E8E8E",
"^ 	c #474747",
"/ 	c #D7D7D7",
"( 	c #FBFBFB",
"_ 	c #F9F9F9",
": 	c #C3C3C3",
"< 	c #3D3D3D",
"[ 	c #A1A1A1",
"} 	c #FFFFFF",
"| 	c #BBBBBB",
"1 	c #313131",
"2 	c #575757",
"3 	c #F2F2F2",
"4 	c #E7E7E7",
"5 	c #4F4F4F",
"6 	c #7C7C7C",
"7 	c #F1F1F1",
"8 	c #FEFEFE",
"9 	c #F4F4F4",
"0 	c #454545",
"a 	c #D4D4D4",
"b 	c #C4C4C4",
"c 	c #E0E0E0",
"d 	c #C7C7C7",
"e 	c #ACACAC",
"f 	c #797979",
"g 	c #383838",
"h 	c #555555",
"i 	c #959595",
"j 	c #AAAAAA",
"k 	c #ADADAD",
"l 	c #FAFAFA",
"m 	c #4D4D4D",
"n 	c #323232",
"o 	c #BFBFBF",
"p 	c #494949",
"q 	c #535353",
"r 	c #404040",
"s 	c #414141",
"t 	c #D6D6D6",
"u 	c #5A5A5A",
"v 	c #BDBDBD",
"w 	c #D1D1D1",
"x 	c #EEEEEE",
"y 	c #EDEDED",
"z 	c #AFAFAF",
"A 	c #4C4C4C",
"B 	c #E5E5E5",
"C 	c #EAEAEA",
"D 	c #D0D0D0",
"E 	c #6E6E6E",
"F 	c #F5F5F5",
"G 	c #E3E3E3",
"H 	c #DDDDDD",
"I 	c #464646",
"J 	c #787878",
"K 	c #E1E1E1",
"L 	c #F7F7F7",
"M 	c #686868",
"N 	c #CDCDCD",
"O 	c #3B3B3B",
"P 	c #5D5D5D",
"Q 	c #525252",
"R 	c #B7B7B7",
"S 	c #848484",
"T 	c #BABABA",
"U 	c #515151",
"V 	c #ECECEC",
"W 	c #F6F6F6",
"X 	c #626262",
"Y 	c #6F6F6F",
"Z 	c #E4E4E4",
"` 	c #DFDFDF",
" .	c #7E7E7E",
"..	c #AEAEAE",
"+.	c #F8F8F8",
"@.	c #B5B5B5",
"#.	c #8C8C8C",
"$.	c #3C3C3C",
"%.	c #CECECE",
"&.	c #9F9F9F",
"*.	c #DEDEDE",
"=.	c #C8C8C8",
"-.	c #737373",
";.	c #BCBCBC",
">.	c #C9C9C9",
",.	c #A3A3A3",
"'.	c #5B5B5B",
").	c #B9B9B9",
"!.	c #606060",
"~.	c #505050",
"{.	c #7B7B7B",
"].	c #727272",
"^.	c #E6E6E6",
"/.	c #989898",
"(.	c #343434",
"_.	c #5E5E5E",
":.	c #E9E9E9",
"<.	c #DCDCDC",
"[.	c #979797",
"}.	c #8D8D8D",
"|.	c #3A3A3A",
"1.	c #CBCBCB",
"2.	c #757575",
"3.	c #B8B8B8",
"4.	c #818181",
"5.	c #CCCCCC",
"6.	c #5C5C5C",
"7.	c #BEBEBE",
"8.	c #B3B3B3",
"9.	c #484848",
"0.	c #7D7D7D",
"a.	c #B1B1B1",
"b.	c #444444",
"                                                                ",
"                                                                ",
"                                                                ",
"                                                                ",
"                                                                ",
"                                                                ",
"                                                                ",
"        . + @ # # # # # $ % &       * = - # # # # ; > ,         ",
"        ' ) ! ~ ~ ~ ~ ~ ! { ]     ^ / ( ~ ~ ~ ~ ~ ~ _ : <       ",
"        [ ~ } } } } } } } } | 1   2 3 } } } } } } } } 4 5       ",
"        6 7 8 } } } 8 ~ ~ 9 =     0 a ( ~ ~ 8 } } } ( b <       ",
"        . ' c } } ~ d e - f g       h i j k c } } l ; m         ",
"          n o } } ~ #       p q q q r     s t } } 9 u           ",
"            j ~ } } v 1   0 w x x y z n   A B } } C 5           ",
"            = ( } } D <   E F } } } G A   h ) } } H I           ",
"            J _ } } K p 1 k ~ } } } L J   M L } } N O           ",
"            P F } } y Q ^ H } } } } 8 R . S l } 8 T 1           ",
"            U V } } W X Y W } } } } } Z m @ ! } ~ ;             ",
"            ^ ` } } _  ...~ } } 8 } } +.f @.8 } ( #.            ",
"            $.%.} } ! &.*.} } l Z } } 8 T =.} } +.-.            ",
"            1 ;.} } 8 >.W } } Z ,.( } } 4 H } } 9 '.            ",
"              - ~ } } L 8 } 8 ).!.7 } } ~ +.} } C ~.            ",
"              #.( } } } } } +.{.< %.} } } } } } *.^             ",
"              ].+.} } } } } ^.5   /.( } } } } } N O             ",
"              u 9 } } } } 8 | (.  _.) } } } } } ;.1             ",
"              5 :.} } } } +. .    $.N } } } } ~ -               ",
"              0 <.} } } } 4 ~.      [.( } } } ( }.              ",
"              |.1.} } } 8 v (.      P ) } } } _ 2.              ",
"                3.8 } } _ 4.        $.5.} } } F 6.              ",
"                 .;.7.7.8.9.          0.;.7.7.a.b.              ",
"                                                                ",
"                                                                "};
